<svg width="131" height="32" viewBox="0 0 131 32" fill="none" xmlns="http://www.w3.org/2000/svg">
<path d="M23.59 16.2777C23.59 20.7699 19.9675 24.4116 15.499 24.4116C11.0304 24.4116 7.40796 20.7699 7.40796 16.2777M23.59 16.2777C23.59 11.7855 19.9675 8.14378 15.499 8.14378C11.0304 8.14378 7.40796 11.7855 7.40796 16.2777M23.59 16.2777L23.59 30.0005M7.40796 16.2777L7.40796 2.69336" stroke="white" stroke-width="3.14394" stroke-linecap="round"/>
<path d="M15.0953 30.0001L14.3209 30.0001C7.37548 30.0001 1.74512 24.3697 1.74512 17.4243L1.74512 6.53613" stroke="white" stroke-width="3.14394" stroke-linecap="round"/>
<path d="M15.9045 2.4914L16.6789 2.4914C23.6243 2.4914 29.2546 8.12175 29.2546 15.0671L29.2546 25.5508" stroke="white" stroke-width="3.14394" stroke-linecap="round"/>
<path d="M51.0346 18.9H44.9546L43.8346 22H41.9146L46.9546 8.14H49.0546L54.0746 22H52.1546L51.0346 18.9ZM50.5146 17.42L47.9946 10.38L45.4746 17.42H50.5146ZM58.0912 7.2V22H56.2712V7.2H58.0912ZM63.0131 7.2V22H61.1931V7.2H63.0131ZM67.935 13.08C68.3083 12.4267 68.855 11.8933 69.575 11.48C70.295 11.0667 71.115 10.86 72.035 10.86C73.0216 10.86 73.9083 11.0933 74.695 11.56C75.4816 12.0267 76.1016 12.6867 76.555 13.54C77.0083 14.38 77.235 15.36 77.235 16.48C77.235 17.5867 77.0083 18.5733 76.555 19.44C76.1016 20.3067 75.475 20.98 74.675 21.46C73.8883 21.94 73.0083 22.18 72.035 22.18C71.0883 22.18 70.255 21.9733 69.535 21.56C68.8283 21.1467 68.295 20.62 67.935 19.98V22H66.115V7.2H67.935V13.08ZM75.375 16.48C75.375 15.6533 75.2083 14.9333 74.875 14.32C74.5416 13.7067 74.0883 13.24 73.515 12.92C72.955 12.6 72.335 12.44 71.655 12.44C70.9883 12.44 70.3683 12.6067 69.795 12.94C69.235 13.26 68.7816 13.7333 68.435 14.36C68.1016 14.9733 67.935 15.6867 67.935 16.5C67.935 17.3267 68.1016 18.0533 68.435 18.68C68.7816 19.2933 69.235 19.7667 69.795 20.1C70.3683 20.42 70.9883 20.58 71.655 20.58C72.335 20.58 72.955 20.42 73.515 20.1C74.0883 19.7667 74.5416 19.2933 74.875 18.68C75.2083 18.0533 75.375 17.32 75.375 16.48ZM81.4506 12.82C81.7706 12.1933 82.2239 11.7067 82.8106 11.36C83.4106 11.0133 84.1372 10.84 84.9906 10.84V12.72H84.5106C82.4706 12.72 81.4506 13.8267 81.4506 16.04V22H79.6306V11.04H81.4506V12.82ZM88.0315 9.26C87.6848 9.26 87.3915 9.14 87.1515 8.9C86.9115 8.66 86.7915 8.36667 86.7915 8.02C86.7915 7.67333 86.9115 7.38 87.1515 7.14C87.3915 6.9 87.6848 6.78 88.0315 6.78C88.3648 6.78 88.6448 6.9 88.8715 7.14C89.1115 7.38 89.2315 7.67333 89.2315 8.02C89.2315 8.36667 89.1115 8.66 88.8715 8.9C88.6448 9.14 88.3648 9.26 88.0315 9.26ZM88.9115 11.04V22H87.0915V11.04H88.9115ZM91.3334 16.48C91.3334 15.36 91.5601 14.38 92.0134 13.54C92.4667 12.6867 93.0867 12.0267 93.8734 11.56C94.6734 11.0933 95.5667 10.86 96.5534 10.86C97.4067 10.86 98.2001 11.06 98.9334 11.46C99.6667 11.8467 100.227 12.36 100.613 13V7.2H102.453V22H100.613V19.94C100.253 20.5933 99.7201 21.1333 99.0134 21.56C98.3067 21.9733 97.4801 22.18 96.5334 22.18C95.5601 22.18 94.6734 21.94 93.8734 21.46C93.0867 20.98 92.4667 20.3067 92.0134 19.44C91.5601 18.5733 91.3334 17.5867 91.3334 16.48ZM100.613 16.5C100.613 15.6733 100.447 14.9533 100.113 14.34C99.7801 13.7267 99.3267 13.26 98.7534 12.94C98.1934 12.6067 97.5734 12.44 96.8934 12.44C96.2134 12.44 95.5934 12.6 95.0334 12.92C94.4734 13.24 94.0267 13.7067 93.6934 14.32C93.3601 14.9333 93.1934 15.6533 93.1934 16.48C93.1934 17.32 93.3601 18.0533 93.6934 18.68C94.0267 19.2933 94.4734 19.7667 95.0334 20.1C95.5934 20.42 96.2134 20.58 96.8934 20.58C97.5734 20.58 98.1934 20.42 98.7534 20.1C99.3267 19.7667 99.7801 19.2933 100.113 18.68C100.447 18.0533 100.613 17.3267 100.613 16.5ZM110.049 10.86C110.996 10.86 111.822 11.0667 112.529 11.48C113.249 11.8933 113.782 12.4133 114.129 13.04V11.04H115.969V22.24C115.969 23.24 115.756 24.1267 115.329 24.9C114.902 25.6867 114.289 26.3 113.489 26.74C112.702 27.18 111.782 27.4 110.729 27.4C109.289 27.4 108.089 27.06 107.129 26.38C106.169 25.7 105.602 24.7733 105.429 23.6H107.229C107.429 24.2667 107.842 24.8 108.469 25.2C109.096 25.6133 109.849 25.82 110.729 25.82C111.729 25.82 112.542 25.5067 113.169 24.88C113.809 24.2533 114.129 23.3733 114.129 22.24V19.94C113.769 20.58 113.236 21.1133 112.529 21.54C111.822 21.9667 110.996 22.18 110.049 22.18C109.076 22.18 108.189 21.94 107.389 21.46C106.602 20.98 105.982 20.3067 105.529 19.44C105.076 18.5733 104.849 17.5867 104.849 16.48C104.849 15.36 105.076 14.38 105.529 13.54C105.982 12.6867 106.602 12.0267 107.389 11.56C108.189 11.0933 109.076 10.86 110.049 10.86ZM114.129 16.5C114.129 15.6733 113.962 14.9533 113.629 14.34C113.296 13.7267 112.842 13.26 112.269 12.94C111.709 12.6067 111.089 12.44 110.409 12.44C109.729 12.44 109.109 12.6 108.549 12.92C107.989 13.24 107.542 13.7067 107.209 14.32C106.876 14.9333 106.709 15.6533 106.709 16.48C106.709 17.32 106.876 18.0533 107.209 18.68C107.542 19.2933 107.989 19.7667 108.549 20.1C109.109 20.42 109.729 20.58 110.409 20.58C111.089 20.58 111.709 20.42 112.269 20.1C112.842 19.7667 113.296 19.2933 113.629 18.68C113.962 18.0533 114.129 17.3267 114.129 16.5ZM129.045 16.1C129.045 16.4467 129.025 16.8133 128.985 17.2H120.225C120.291 18.28 120.658 19.1267 121.325 19.74C122.005 20.34 122.825 20.64 123.785 20.64C124.571 20.64 125.225 20.46 125.745 20.1C126.278 19.7267 126.651 19.2333 126.865 18.62H128.825C128.531 19.6733 127.945 20.5333 127.065 21.2C126.185 21.8533 125.091 22.18 123.785 22.18C122.745 22.18 121.811 21.9467 120.985 21.48C120.171 21.0133 119.531 20.3533 119.065 19.5C118.598 18.6333 118.365 17.6333 118.365 16.5C118.365 15.3667 118.591 14.3733 119.045 13.52C119.498 12.6667 120.131 12.0133 120.945 11.56C121.771 11.0933 122.718 10.86 123.785 10.86C124.825 10.86 125.745 11.0867 126.545 11.54C127.345 11.9933 127.958 12.62 128.385 13.42C128.825 14.2067 129.045 15.1 129.045 16.1ZM127.165 15.72C127.165 15.0267 127.011 14.4333 126.705 13.94C126.398 13.4333 125.978 13.0533 125.445 12.8C124.925 12.5333 124.345 12.4 123.705 12.4C122.785 12.4 121.998 12.6933 121.345 13.28C120.705 13.8667 120.338 14.68 120.245 15.72H127.165Z" fill="white"/>
</svg>
